<svg xmlns="http://www.w3.org/2000/svg" xmlns:xlink="http://www.w3.org/1999/xlink"><symbol id="icon-fb" viewBox="0 0 14 27"><path d="M13.473.006L10.115 0c-3.773 0-6.21 2.608-6.21 6.645v3.063H.527A.54.54 0 000 10.26v4.44c0 .303.237.55.528.55h3.376v11.2a.54.54 0 00.528.551h4.405a.54.54 0 00.528-.55V15.248h3.948a.54.54 0 00.528-.55l.002-4.44a.563.563 0 00-.155-.39.517.517 0 00-.374-.16H9.365V7.11c0-1.248.286-1.882 1.845-1.882h2.262A.54.54 0 0014 4.677V.556a.54.54 0 00-.527-.55z" fill="#fff"/></symbol><symbol id="icon-inst" viewBox="0 0 27 27"><path d="M19.691 0H7.31C3.279 0 0 3.279 0 7.309v12.383C0 23.722 3.279 27 7.309 27h12.383C23.722 27 27 23.721 27 19.692V7.309C27 3.279 23.721 0 19.691 0zM13.5 20.883c-4.07 0-7.383-3.312-7.383-7.383 0-4.07 3.312-7.383 7.383-7.383 4.07 0 7.383 3.312 7.383 7.383 0 4.07-3.312 7.383-7.383 7.383zm7.56-13.025a2.184 2.184 0 01-2.182-2.181c0-1.203.978-2.182 2.181-2.182s2.182.979 2.182 2.182a2.184 2.184 0 01-2.182 2.181z" fill="#fff"/><path d="M13.5 7.7a5.806 5.806 0 00-5.8 5.8c0 3.198 2.602 5.8 5.8 5.8s5.8-2.602 5.8-5.8-2.602-5.8-5.8-5.8zm7.558-2.621a.6.6 0 10.002 1.198.6.6 0 00-.002-1.198z" fill="#fff"/></symbol><symbol id="icon-vk" viewBox="0 0 32 17"><path fill-rule="evenodd" clip-rule="evenodd" d="M27.54 10.81c1.062.972 2.182 1.888 3.134 2.959.421.476.82.967 1.124 1.519.431.785.04 1.65-.71 1.696l-4.661-.002c-1.203.094-2.162-.36-2.968-1.132-.646-.618-1.244-1.274-1.864-1.912a4.338 4.338 0 00-.84-.7c-.636-.388-1.188-.27-1.552.354-.37.633-.454 1.335-.49 2.041-.05 1.03-.382 1.302-1.485 1.349-2.356.104-4.593-.23-6.67-1.346-1.832-.984-3.253-2.373-4.49-3.945C3.663 8.629 1.819 5.264.163 1.806-.211 1.026.062.608.977.593 2.498.566 4.02.568 5.541.591c.618.009 1.028.342 1.266.89.823 1.9 1.83 3.706 3.094 5.381.336.446.68.892 1.168 1.206.54.347.952.232 1.207-.333.161-.359.232-.745.268-1.129.12-1.32.136-2.64-.075-3.956-.13-.821-.622-1.353-1.496-1.508-.445-.08-.379-.235-.163-.474.375-.412.727-.668 1.43-.668h5.268c.83.154 1.014.503 1.127 1.287l.005 5.494c-.01.303.161 1.203.743 1.404.466.143.773-.207 1.052-.484 1.262-1.257 2.162-2.742 2.966-4.28.357-.677.664-1.379.962-2.08.22-.521.566-.778 1.19-.766l5.072.004c.15 0 .302.002.448.025.854.137 1.088.482.824 1.265-.415 1.23-1.225 2.253-2.016 3.282-.845 1.099-1.75 2.16-2.588 3.264-.77 1.01-.71 1.518.248 2.394z" fill="#fff"/></symbol></svg>